RobotoFlexCondensed-Regular.ufo
<glyph name="hyphen" format="2">
  <advance width="560"/>
  <unicode hex="002D"/>
  <outline>
    <contour>
      <point x="38.66666666666667" y="547.2" type="line"/>
      <point x="38.66666666666667" y="713.8666666666667" type="line"/>
      <point x="521.6" y="713.8666666666667" type="line"/>
      <point x="521.6" y="547.2" type="line"/>
    </contour>
  </outline>
</glyph>
<glyph name="period" format="2">
  <advance width="569"/>
  <unicode hex="002E"/>
  <outline>
    <contour>
      <point x="160.0" y="100.86666666666666" type="curve" smooth="yes"/>
      <point x="160" y="169"/>
      <point x="204" y="224"/>
      <point x="285.73333333333335" y="223.73333333333332" type="curve" smooth="yes"/>
      <point x="366" y="224"/>
      <point x="409" y="169"/>
      <point x="409.3333333333333" y="99.8" type="curve" smooth="yes"/>
      <point x="409" y="33"/>
      <point x="366" y="-22"/>
      <point x="284.6666666666667" y="-22.0" type="curve" smooth="yes"/>
      <point x="205" y="-22"/>
      <point x="160" y="33"/>
    </contour>
  </outline>
</glyph>
<glyph name="six" format="2">
  <advance width="1030"/>
  <unicode hex="0036"/>
  <outline>
    <contour>
      <point x="96.53333333333333" y="614.0" type="curve" smooth="yes"/>
      <point x="96.53333333333333" y="644.0" type="line" smooth="yes"/>
      <point x="97" y="1153"/>
      <point x="337" y="1486"/>
      <point x="768.0" y="1486.0" type="curve" smooth="yes"/>
      <point x="784.8" y="1486.0" type="line"/>
      <point x="784.8" y="1333.3333333333333" type="line"/>
      <point x="768.0" y="1333.3333333333333" type="line" smooth="yes"/>
      <point x="463" y="1333"/>
      <point x="276" y="1123"/>
      <point x="276.0" y="654.0" type="curve" smooth="yes"/>
      <point x="276.0" y="604.0" type="line" smooth="yes"/>
      <point x="276" y="251"/>
      <point x="384" y="123"/>
      <point x="531.7333333333333" y="122.66666666666667" type="curve" smooth="yes"/>
      <point x="678" y="123"/>
      <point x="762" y="247"/>
      <point x="761.7333333333333" y="464.0" type="curve" smooth="yes"/>
      <point x="762" y="680"/>
      <point x="678" y="801"/>
      <point x="531.7333333333333" y="801.2" type="curve" smooth="yes"/>
      <point x="393" y="801"/>
      <point x="270" y="678"/>
      <point x="270.0" y="464.0" type="curve"/>
      <point x="203.2" y="464.0" type="line"/>
      <point x="203" y="757"/>
      <point x="346" y="954"/>
      <point x="564.2666666666667" y="953.8666666666667" type="curve" smooth="yes"/>
      <point x="792" y="954"/>
      <point x="943" y="757"/>
      <point x="943.2" y="464.0" type="curve" smooth="yes"/>
      <point x="943" y="169"/>
      <point x="770" y="-30"/>
      <point x="531.7333333333333" y="-30.0" type="curve" smooth="yes"/>
      <point x="293" y="-30"/>
      <point x="97" y="158"/>
    </contour>
  </outline>
</glyph>
<glyph name="eight" format="2">
  <advance width="1017"/>
  <unicode hex="0038"/>
  <outline>
    <contour>
      <point x="105.89047619047619" y="386.0" type="curve" smooth="yes"/>
      <point x="106" y="559"/>
      <point x="190" y="680"/>
      <point x="323.34285714285716" y="742.1571428571428" type="curve"/>
      <point x="323.34285714285716" y="746.1571428571428" type="line"/>
      <point x="221" y="807"/>
      <point x="145" y="928"/>
      <point x="145.4904761904762" y="1087.0" type="curve" smooth="yes"/>
      <point x="145" y="1328"/>
      <point x="298" y="1486"/>
      <point x="508.1428571428571" y="1486.0" type="curve" smooth="yes"/>
      <point x="718" y="1486"/>
      <point x="871" y="1328"/>
      <point x="871.1428571428571" y="1087.0" type="curve" smooth="yes"/>
      <point x="871" y="928"/>
      <point x="794" y="807"/>
      <point x="693.0095238095238" y="746.1571428571428" type="curve"/>
      <point x="693.0095238095238" y="742.1571428571428" type="line"/>
      <point x="826" y="680"/>
      <point x="911" y="560"/>
      <point x="910.7428571428571" y="386.0" type="curve" smooth="yes"/>
      <point x="911" y="121"/>
      <point x="740" y="-30"/>
      <point x="508.1428571428571" y="-30.0" type="curve" smooth="yes"/>
      <point x="276" y="-30"/>
      <point x="106" y="121"/>
    </contour>
    <contour>
      <point x="285.35714285714283" y="394.93333333333334" type="curve" smooth="yes"/>
      <point x="285" y="233"/>
      <point x="365" y="123"/>
      <point x="508.1428571428571" y="122.66666666666667" type="curve" smooth="yes"/>
      <point x="649" y="123"/>
      <point x="730" y="233"/>
      <point x="730.2095238095238" y="394.93333333333334" type="curve" smooth="yes"/>
      <point x="730" y="559"/>
      <point x="649" y="668"/>
      <point x="508.1428571428571" y="668.1333333333333" type="curve" smooth="yes"/>
      <point x="365" y="668"/>
      <point x="285" y="559"/>
    </contour>
    <contour>
      <point x="320.95714285714286" y="1078.0666666666666" type="curve" smooth="yes"/>
      <point x="321" y="928"/>
      <point x="388" y="822"/>
      <point x="508.1428571428571" y="821.8666666666667" type="curve" smooth="yes"/>
      <point x="627" y="822"/>
      <point x="696" y="928"/>
      <point x="695.6761904761904" y="1078.0666666666666" type="curve" smooth="yes"/>
      <point x="696" y="1228"/>
      <point x="627" y="1333"/>
      <point x="508.1428571428571" y="1333.3333333333333" type="curve" smooth="yes"/>
      <point x="388" y="1333"/>
      <point x="321" y="1228"/>
    </contour>
  </outline>
</glyph>
<glyph name="nine" format="2">
  <advance width="1030"/>
  <unicode hex="0039"/>
  <outline>
    <contour>
      <point x="86.93333333333334" y="1002.0" type="curve" smooth="yes"/>
      <point x="87" y="1291"/>
      <point x="260" y="1486"/>
      <point x="498.4" y="1486.0" type="curve" smooth="yes"/>
      <point x="738" y="1486"/>
      <point x="934" y="1298"/>
      <point x="933.6" y="842.0" type="curve" smooth="yes"/>
      <point x="933.6" y="812.0" type="line" smooth="yes"/>
      <point x="934" y="303"/>
      <point x="693" y="-30"/>
      <point x="262.1333333333333" y="-30.0" type="curve" smooth="yes"/>
      <point x="245.33333333333334" y="-30.0" type="line"/>
      <point x="245.33333333333334" y="122.66666666666667" type="line"/>
      <point x="262.1333333333333" y="122.66666666666667" type="line" smooth="yes"/>
      <point x="567" y="123"/>
      <point x="754" y="333"/>
      <point x="754.1333333333333" y="802.0" type="curve" smooth="yes"/>
      <point x="754.1333333333333" y="852.0" type="line" smooth="yes"/>
      <point x="754" y="1205"/>
      <point x="646" y="1333"/>
      <point x="498.4" y="1333.3333333333333" type="curve" smooth="yes"/>
      <point x="352" y="1333"/>
      <point x="269" y="1213"/>
      <point x="269.46666666666664" y="1002.0" type="curve" smooth="yes"/>
      <point x="269" y="793"/>
      <point x="352" y="675"/>
      <point x="498.4" y="674.8" type="curve" smooth="yes"/>
      <point x="637" y="675"/>
      <point x="760" y="793"/>
      <point x="760.1333333333333" y="1002.0" type="curve"/>
      <point x="828.0" y="1002.0" type="line"/>
      <point x="828" y="714"/>
      <point x="684" y="522"/>
      <point x="465.8666666666667" y="522.1333333333333" type="curve" smooth="yes"/>
      <point x="239" y="522"/>
      <point x="87" y="714"/>
    </contour>
  </outline>
</glyph>
<glyph name="A" format="2">
  <advance width="1074"/>
  <unicode hex="0041"/>
  <outline>
    <contour>
      <point x="0.0" y="0.0" type="line"/>
      <point x="438.8" y="1466.0" type="line"/>
      <point x="634.2666666666667" y="1466.0" type="line"/>
      <point x="1074.1333333333332" y="0.0" type="line"/>
      <point x="888.0" y="0.0" type="line"/>
      <point x="569.0666666666666" y="1108.5333333333333" type="line" smooth="yes"/>
      <point x="557" y="1154"/>
      <point x="547" y="1194"/>
      <point x="539.5333333333333" y="1236.5333333333333" type="curve"/>
      <point x="531.6666666666666" y="1236.5333333333333" type="line"/>
      <point x="524" y="1194"/>
      <point x="513" y="1154"/>
      <point x="500.0" y="1108.5333333333333" type="curve" smooth="yes"/>
      <point x="179.2" y="0.0" type="line"/>
    </contour>
    <contour>
      <point x="201.73333333333335" y="382.1333333333333" type="line"/>
      <point x="246.86666666666667" y="535.8666666666667" type="line"/>
      <point x="824.2" y="535.8666666666667" type="line"/>
      <point x="868.3333333333334" y="382.1333333333333" type="line"/>
    </contour>
  </outline>
</glyph>
<glyph name="F" format="2">
  <advance width="991"/>
  <unicode hex="0046"/>
  <outline>
    <contour>
      <point x="170.0" y="0.0" type="line"/>
      <point x="170.0" y="1456.0" type="line"/>
      <point x="933.3333333333334" y="1456.0" type="line"/>
      <point x="933.3333333333334" y="1303.3333333333333" type="line"/>
      <point x="353.46666666666664" y="1303.3333333333333" type="line"/>
      <point x="353.46666666666664" y="797.8" type="line"/>
      <point x="850.3333333333334" y="797.8" type="line"/>
      <point x="850.3333333333334" y="646.2" type="line"/>
      <point x="353.46666666666664" y="646.2" type="line"/>
      <point x="353.46666666666664" y="0.0" type="line"/>
    </contour>
  </outline>
</glyph>
<glyph name="K" format="2">
  <advance width="1101"/>
  <unicode hex="004B"/>
  <outline>
    <contour>
      <point x="170.0" y="0.0" type="line"/>
      <point x="170.0" y="1456.0" type="line"/>
      <point x="353.46666666666664" y="1456.0" type="line"/>
      <point x="353.46666666666664" y="759.2" type="line"/>
      <point x="891.6" y="1456.0" type="line"/>
      <point x="1095.8666666666668" y="1456.0" type="line"/>
      <point x="353.46666666666664" y="525.6" type="line"/>
      <point x="353.46666666666664" y="0.0" type="line"/>
    </contour>
    <contour>
      <point x="915.6" y="0.0" type="line"/>
      <point x="431.6" y="754.9333333333333" type="line"/>
      <point x="541.7333333333333" y="883.6" type="line"/>
      <point x="1120.6666666666667" y="0.0" type="line"/>
    </contour>
  </outline>
</glyph>
<glyph name="P" format="2">
  <advance width="1076"/>
  <unicode hex="0050"/>
  <outline>
    <contour>
      <point x="170.0" y="0.0" type="line"/>
      <point x="170.0" y="1456.0" type="line"/>
      <point x="568.8" y="1456.0" type="line" smooth="yes"/>
      <point x="848" y="1456"/>
      <point x="999" y="1311"/>
      <point x="998.5333333333333" y="1016.0666666666667" type="curve" smooth="yes"/>
      <point x="999" y="721"/>
      <point x="848" y="572"/>
      <point x="568.8" y="572.1333333333333" type="curve" smooth="yes"/>
      <point x="353.46666666666664" y="572.1333333333333" type="line"/>
      <point x="353.46666666666664" y="0.0" type="line"/>
    </contour>
    <contour>
      <point x="353.46666666666664" y="725.8666666666667" type="line"/>
      <point x="568.8" y="725.8666666666667" type="line" smooth="yes"/>
      <point x="752" y="726"/>
      <point x="815" y="847"/>
      <point x="815.0666666666666" y="1016.0666666666667" type="curve" smooth="yes"/>
      <point x="815" y="1187"/>
      <point x="752" y="1303"/>
      <point x="568.8" y="1303.3333333333333" type="curve" smooth="yes"/>
      <point x="353.46666666666664" y="1303.3333333333333" type="line"/>
    </contour>
  </outline>
</glyph>
<glyph name="Y" format="2">
  <advance width="1030"/>
  <unicode hex="0059"/>
  <outline>
    <contour>
      <point x="423.06666666666666" y="0.0" type="line"/>
      <point x="423.06666666666666" y="546.1333333333333" type="line"/>
      <point x="15.0" y="1456.0" type="line"/>
      <point x="213.93333333333334" y="1456.0" type="line"/>
      <point x="466.2" y="868.8" type="line" smooth="yes"/>
      <point x="483" y="829"/>
      <point x="500" y="777"/>
      <point x="513.8" y="735.547619047619" type="curve"/>
      <point x="521.9333333333334" y="735.547619047619" type="line"/>
      <point x="535" y="777"/>
      <point x="552" y="829"/>
      <point x="569.5333333333333" y="868.8" type="curve" smooth="yes"/>
      <point x="824.7333333333333" y="1456.0" type="line"/>
      <point x="1014.6" y="1456.0" type="line"/>
      <point x="606.5333333333333" y="546.1333333333333" type="line"/>
      <point x="606.5333333333333" y="0.0" type="line"/>
    </contour>
  </outline>
</glyph>
<glyph name="bracketright" format="2">
  <advance width="638"/>
  <unicode hex="005D"/>
  <outline>
    <contour>
      <point x="494.1333333333333" y="-310.0" type="line"/>
      <point x="90.66666666666667" y="-310.0" type="line"/>
      <point x="90.66666666666667" y="-155.33333333333334" type="line"/>
      <point x="317.6666666666667" y="-155.33333333333334" type="line"/>
      <point x="317.6666666666667" y="1301.3333333333333" type="line"/>
      <point x="90.66666666666667" y="1301.3333333333333" type="line"/>
      <point x="90.66666666666667" y="1456.0" type="line"/>
      <point x="494.1333333333333" y="1456.0" type="line"/>
    </contour>
  </outline>
</glyph>
<glyph name="t" format="2">
  <advance width="564"/>
  <unicode hex="0074"/>
  <outline>
    <contour>
      <point x="0.0" y="939.1238095238095" type="line"/>
      <point x="0.0" y="1076.857142857143" type="line"/>
      <point x="513.6" y="1076.857142857143" type="line"/>
      <point x="513.6" y="939.1238095238095" type="line"/>
    </contour>
    <contour>
      <point x="151.73333333333335" y="260.0" type="curve" smooth="yes"/>
      <point x="151.73333333333335" y="992.9904761904762" type="line"/>
      <point x="151.73333333333335" y="1022.9904761904762" type="line"/>
      <point x="151.73333333333335" y="1320.5714285714287" type="line"/>
      <point x="329.2" y="1320.5714285714287" type="line"/>
      <point x="329.2" y="252.53333333333333" type="line" smooth="yes"/>
      <point x="329" y="150"/>
      <point x="356" y="125"/>
      <point x="420.6666666666667" y="124.66666666666667" type="curve" smooth="yes"/>
      <point x="451" y="125"/>
      <point x="478" y="131"/>
      <point x="508.26666666666665" y="141.33333333333334" type="curve"/>
      <point x="508.26666666666665" y="0.0" type="line"/>
      <point x="479" y="-16"/>
      <point x="431" y="-30"/>
      <point x="373.8666666666667" y="-30.0" type="curve" smooth="yes"/>
      <point x="238" y="-30"/>
      <point x="152" y="59"/>
    </contour>
  </outline>
</glyph>
<glyph name="braceleft" format="2">
  <advance width="691"/>
  <unicode hex="007B"/>
  <outline>
    <contour>
      <point x="609.2" y="-312.0" type="line"/>
      <point x="354" y="-312"/>
      <point x="185" y="-119"/>
      <point x="229.2" y="101.66666666666667" type="curve" smooth="yes"/>
      <point x="276.0" y="334.0" type="line" smooth="yes"/>
      <point x="305" y="479"/>
      <point x="222" y="510"/>
      <point x="91.73333333333333" y="510.1333333333333" type="curve"/>
      <point x="91.73333333333333" y="637.8666666666667" type="line"/>
      <point x="222" y="638"/>
      <point x="305" y="669"/>
      <point x="276.0" y="814.0" type="curve" smooth="yes"/>
      <point x="229.2" y="1046.3333333333333" type="line" smooth="yes"/>
      <point x="185" y="1267"/>
      <point x="354" y="1460"/>
      <point x="609.2" y="1460.0" type="curve"/>
      <point x="609.2" y="1318.2666666666667" type="line"/>
      <point x="459" y="1318"/>
      <point x="371" y="1226"/>
      <point x="406.6666666666667" y="1046.3333333333333" type="curve" smooth="yes"/>
      <point x="453.46666666666664" y="814.0" type="line" smooth="yes"/>
      <point x="477" y="701"/>
      <point x="432" y="616"/>
      <point x="299.2" y="574.0" type="curve"/>
      <point x="432" y="532"/>
      <point x="477" y="447"/>
      <point x="453.46666666666664" y="334.0" type="curve" smooth="yes"/>
      <point x="406.6666666666667" y="101.66666666666667" type="line" smooth="yes"/>
      <point x="371" y="-78"/>
      <point x="459" y="-170"/>
      <point x="609.2" y="-170.26666666666668" type="curve"/>
    </contour>
  </outline>
</glyph>
<glyph name="exclamdown" format="2">
  <advance width="611"/>
  <unicode hex="00A1"/>
  <outline>
    <contour>
      <point x="425.46666666666664" y="1055.1333333333334" type="curve" smooth="yes"/>
      <point x="425" y="991"/>
      <point x="383" y="938"/>
      <point x="305.73333333333335" y="938.2666666666667" type="curve" smooth="yes"/>
      <point x="228" y="938"/>
      <point x="186" y="991"/>
      <point x="186.0" y="1055.1333333333334" type="curve" smooth="yes"/>
      <point x="186" y="1119"/>
      <point x="228" y="1172"/>
      <point x="305.73333333333335" y="1172.0" type="curve" smooth="yes"/>
      <point x="383" y="1172"/>
      <point x="425" y="1119"/>
    </contour>
    <contour>
      <point x="384.53333333333336" y="740.0" type="line"/>
      <point x="398.46666666666664" y="-306.0" type="line"/>
      <point x="214.06666666666666" y="-306.0" type="line"/>
      <point x="228.0" y="740.0" type="line"/>
    </contour>
  </outline>
</glyph>
<glyph name="paragraph" format="2">
  <advance width="1044"/>
  <unicode hex="00B6"/>
  <guideline x="0" y="901.0" angle="0" identifier="27539Lsr1A"/>
  <guideline x="0" y="555.0" angle="0" identifier="e34wUdCmXR"/>
  <outline>
    <contour>
      <point x="580.4666666666667" y="-146.0" type="line"/>
      <point x="405.1333333333333" y="-146.0" type="line"/>
      <point x="405.1333333333333" y="717.3333333333334" type="line"/>
      <point x="318.1333333333333" y="717.3333333333334" type="line" smooth="yes"/>
      <point x="168" y="717"/>
      <point x="60" y="870"/>
      <point x="60.266666666666666" y="1086.6666666666667" type="curve" smooth="yes"/>
      <point x="60" y="1304"/>
      <point x="168" y="1456"/>
      <point x="318.1333333333333" y="1456.0" type="curve" smooth="yes"/>
      <point x="580.4666666666667" y="1456.0" type="line"/>
    </contour>
    <contour>
      <point x="722.4666666666667" y="1459.0" type="line"/>
      <point x="897.8" y="1459.0" type="line"/>
      <point x="897.8" y="-146.0" type="line"/>
      <point x="722.4666666666667" y="-146.0" type="line"/>
    </contour>
  </outline>
</glyph>
<glyph name="onesuperior" format="2">
  <advance width="655"/>
  <unicode hex="00B9"/>
  <outline>
    <contour>
      <point x="123.0" y="1211.0" type="line"/>
      <point x="123.0" y="1370.0" type="line"/>
      <point x="403.6666666666667" y="1486.0" type="line"/>
      <point x="447.6666666666667" y="1486.0" type="line"/>
      <point x="447.6666666666667" y="697.0" type="line"/>
      <point x="285.6666666666667" y="697.0" type="line"/>
      <point x="285.6666666666667" y="1277.3333333333333" type="line"/>
    </contour>
  </outline>
</glyph>
<glyph name="AE" format="2">
  <advance width="1677"/>
  <unicode hex="00C6"/>
  <outline>
    <contour>
      <point x="270.0" y="363.6666666666667" type="line"/>
      <point x="370.0" y="516.2666666666667" type="line"/>
      <point x="928.3333333333334" y="516.2666666666667" type="line"/>
      <point x="928.3333333333334" y="363.6666666666667" type="line"/>
    </contour>
    <contour>
      <point x="1.0" y="0.0" type="line"/>
      <point x="755.0666666666666" y="1456.0" type="line"/>
      <point x="1599.2" y="1456.0" type="line"/>
      <point x="1599.2" y="1303.3333333333333" type="line"/>
      <point x="1006.8" y="1303.3333333333333" type="line"/>
      <point x="1006.8" y="827.8666666666667" type="line"/>
      <point x="1507.2" y="827.8666666666667" type="line"/>
      <point x="1507.2" y="674.1333333333333" type="line"/>
      <point x="1006.8" y="674.1333333333333" type="line"/>
      <point x="1006.8" y="152.66666666666666" type="line"/>
      <point x="1609.2" y="152.66666666666666" type="line"/>
      <point x="1609.2" y="0.0" type="line"/>
      <point x="823.3333333333334" y="0.0" type="line"/>
      <point x="823.3333333333334" y="1259.3333333333333" type="line"/>
      <point x="180.0" y="0.0" type="line"/>
    </contour>
  </outline>
</glyph>
<glyph name="Thorn" format="2">
  <advance width="1078"/>
  <unicode hex="00DE"/>
  <guideline x="0" y="901.0" angle="0" identifier="i9jYwjBDP4"/>
  <guideline x="0" y="555.0" angle="0" identifier="T8KKW8oxop"/>
  <outline>
    <contour>
      <point x="170.0" y="1456.0" type="line"/>
      <point x="352.8666666666667" y="1456.0" type="line"/>
      <point x="352.8666666666667" y="1165.1333333333334" type="line"/>
      <point x="570.0666666666667" y="1165.1333333333334" type="line" smooth="yes"/>
      <point x="849" y="1165"/>
      <point x="1001" y="1037"/>
      <point x="1000.5333333333333" y="741.2" type="curve" smooth="yes"/>
      <point x="1001" y="446"/>
      <point x="849" y="312"/>
      <point x="570.0666666666667" y="310.8" type="curve" smooth="yes"/>
      <point x="353.93333333333334" y="310.8" type="line"/>
      <point x="353.93333333333334" y="0.0" type="line"/>
      <point x="170.0" y="0.0" type="line"/>
    </contour>
    <contour>
      <point x="570.0666666666667" y="1012.0" type="curve" smooth="yes"/>
      <point x="353.93333333333334" y="1012.0" type="line"/>
      <point x="353.93333333333334" y="465.0" type="line"/>
      <point x="570.0666666666667" y="465.0" type="line" smooth="yes"/>
      <point x="754" y="465"/>
      <point x="817" y="573"/>
      <point x="816.6" y="741.3333333333334" type="curve" smooth="yes"/>
      <point x="817" y="911"/>
      <point x="754" y="1011"/>
    </contour>
  </outline>
</glyph>
<glyph name="kgreenlandic" format="2">
  <advance width="959"/>
  <unicode hex="0138"/>
  <outline>
    <contour>
      <point x="334.6666666666667" y="1050.0" type="line"/>
      <point x="334.6666666666667" y="0.0" type="line"/>
      <point x="155.0" y="0.0" type="line"/>
      <point x="155.0" y="1050.0" type="line"/>
    </contour>
    <contour>
      <point x="917.6" y="1050.0" type="line"/>
      <point x="510.6" y="466.26666666666665" type="line"/>
      <point x="250.0" y="466.26666666666665" type="line"/>
      <point x="250.0" y="619.7333333333333" type="line"/>
      <point x="432.0" y="619.7333333333333" type="line"/>
      <point x="704.2666666666667" y="1050.0" type="line"/>
    </contour>
    <contour>
      <point x="747.3333333333334" y="0.0" type="line"/>
      <point x="423.0" y="490.0" type="line"/>
      <point x="535.6" y="624.0" type="line"/>
      <point x="974.9333333333334" y="0.0" type="line"/>
    </contour>
  </outline>
</glyph>
<glyph name="alpha" format="2">
  <advance width="1062"/>
  <unicode hex="03B1"/>
  <anchor x="474.8095238095238" y="1076.857142857143" name="GRK_top"/>
  <outline>
    <contour>
      <point x="447.1333333333333" y="-20.0" type="curve" smooth="yes"/>
      <point x="223.44266666666664" y="-20.0"/>
      <point x="85.0" y="206.04285714285714"/>
      <point x="85.0" y="522.8571428571429" type="curve" smooth="yes"/>
      <point x="85.0" y="554.0" type="line" smooth="yes"/>
      <point x="85.0" y="869.3849523809524"/>
      <point x="224.16799999999998" y="1096.857142857143"/>
      <point x="445.0" y="1096.857142857143" type="curve" smooth="yes"/>
      <point x="559.5253333333334" y="1096.857142857143"/>
      <point x="651.932" y="1043.0464761904761"/>
      <point x="701.3333333333334" y="955.8571428571429" type="curve"/>
      <point x="705.2" y="955.8571428571429" type="line"/>
      <point x="712.1333333333333" y="1076.857142857143" type="line"/>
      <point x="874.8" y="1076.857142857143" type="line"/>
      <point x="874.8" y="240.66666666666666" type="line" smooth="yes"/>
      <point x="874.8" y="143.02533333333335"/>
      <point x="901.4773333333333" y="131.06666666666666"/>
      <point x="948.4666666666667" y="131.06666666666666" type="curve" smooth="yes"/>
      <point x="969.996" y="131.06666666666666"/>
      <point x="992.212" y="136.75333333333333"/>
      <point x="1012.1333333333333" y="146.13333333333333" type="curve"/>
      <point x="1012.1333333333333" y="1.5999999999999996" type="line"/>
      <point x="990.9613333333334" y="-10.46"/>
      <point x="935.9173333333333" y="-19.333333333333336"/>
      <point x="898.9333333333334" y="-19.333333333333336" type="curve"/>
      <point x="802.364" y="-19.333333333333336"/>
      <point x="740.7066666666667" y="10.933333333333323"/>
      <point x="714.8" y="113.66666666666667" type="curve"/>
      <point x="710.9333333333334" y="113.66666666666667" type="line"/>
      <point x="677.3439999999999" y="46.66666666666666"/>
      <point x="600.876" y="-20.0"/>
    </contour>
    <contour>
      <point x="490.3333333333333" y="127.73333333333333" type="curve" smooth="yes"/>
      <point x="582.8826666666666" y="127.73333333333333"/>
      <point x="662.9399999999999" y="194.73333333333332"/>
      <point x="697.3333333333334" y="288.53333333333336" type="curve"/>
      <point x="697.3333333333334" y="801.1238095238095" type="line"/>
      <point x="666.424" y="878.2184761904762"/>
      <point x="604.0173333333332" y="949.1238095238095"/>
      <point x="497.8" y="949.1238095238095" type="curve" smooth="yes"/>
      <point x="346.82666666666665" y="949.1238095238095"/>
      <point x="266.46666666666664" y="827.595619047619"/>
      <point x="266.46666666666664" y="586.0" type="curve"/>
      <point x="266.46666666666664" y="501.5238095238095" type="line" smooth="yes"/>
      <point x="266.46666666666664" y="258.4988571428571"/>
      <point x="336.50133333333326" y="127.73333333333333"/>
    </contour>
  </outline>
</glyph>
<glyph name="delta" format="2">
  <advance width="986"/>
  <unicode hex="03B4"/>
  <outline>
    <contour>
      <point x="495.03809523809525" y="-30.0" type="curve" smooth="yes"/>
      <point x="743.920761904762" y="-30.0"/>
      <point x="907.6666666666666" y="176.87942857142855"/>
      <point x="907.6666666666666" y="459.54285714285714" type="curve" smooth="yes"/>
      <point x="907.6666666666666" y="486.79047619047617" type="line" smooth="yes"/>
      <point x="907.6666666666666" y="740.5481904761905"/>
      <point x="778.4040000000001" y="897.190761904762"/>
      <point x="581.0666666666666" y="1039.4285714285713" type="curve" smooth="yes"/>
      <point x="431.8353333333333" y="1147.0178095238095"/>
      <point x="402" y="1188"/>
      <point x="402" y="1275" type="curve"/>
      <point x="402" y="1343"/>
      <point x="450" y="1405"/>
      <point x="544" y="1405" type="curve"/>
      <point x="623" y="1405"/>
      <point x="703" y="1376"/>
      <point x="790" y="1328.0" type="curve"/>
      <point x="816.6666666666666" y="1487.0" type="line"/>
      <point x="754.58" y="1525.86"/>
      <point x="667.932" y="1556.0"/>
      <point x="547.6" y="1556.0" type="curve"/>
      <point x="339.5426666666666" y="1556.0"/>
      <point x="220.26" y="1428.6182857142858"/>
      <point x="221.6" y="1260.952380952381" type="curve"/>
      <point x="220.26" y="1118.7209523809524"/>
      <point x="307.57599999999996" y="1005.839238095238"/>
      <point x="495.5333333333333" y="905.4285714285714" type="curve" smooth="yes"/>
      <point x="629.1696190476191" y="831.0075238095238"/>
      <point x="727.0666666666666" y="700.8921904761905"/>
      <point x="727.0666666666666" y="485.1904761904762" type="curve" smooth="yes"/>
      <point x="727.0666666666666" y="455.1333333333333" type="line" smooth="yes"/>
      <point x="727.0666666666666" y="240.108"/>
      <point x="647.1541904761905" y="119.06666666666666"/>
      <point x="496.2" y="119.06666666666666" type="curve" smooth="yes"/>
      <point x="351.74799999999993" y="119.06666666666666"/>
      <point x="269.8666666666667" y="215.10666666666665"/>
      <point x="269.8666666666667" y="455.6047619047619" type="curve" smooth="yes"/>
      <point x="269.8666666666667" y="475.5952380952381" type="line" smooth="yes"/>
      <point x="269.8666666666667" y="701.2001904761905"/>
      <point x="370.044" y="869.6459047619047"/>
      <point x="539.8666666666667" y="906.3619047619047" type="curve"/>
      <point x="464.2" y="1009.0952380952381" type="line"/>
      <point x="220.85600000000002" y="940.755238095238"/>
      <point x="90.33333333333333" y="729.1508571428571"/>
      <point x="90.33333333333333" y="476.1333333333333" type="curve" smooth="yes"/>
      <point x="90.33333333333333" y="460.0190476190476" type="line" smooth="yes"/>
      <point x="90.33333333333333" y="154.9967619047619"/>
      <point x="231.41542857142855" y="-30.0"/>
    </contour>
  </outline>
</glyph>
<glyph name="phi" format="2">
  <advance width="1251"/>
  <unicode hex="03C6"/>
  <outline>
    <contour>
      <point x="537.1333333333333" y="-416.0" type="line"/>
      <point x="537.1333333333333" y="-30.0" type="line"/>
      <point x="262.43333333333334" y="-16.6"/>
      <point x="85.0" y="167.9114285714286"/>
      <point x="85.0" y="520.7142857142857" type="curve" smooth="yes"/>
      <point x="85.0" y="548.4285714285714" type="line" smooth="yes"/>
      <point x="85.0" y="904.1028571428571"/>
      <point x="262.43333333333334" y="1087.8857142857141"/>
      <point x="537.1333333333333" y="1101.2857142857142" type="curve"/>
      <point x="537.1333333333333" y="1536.0" type="line"/>
      <point x="714.6" y="1536.0" type="line"/>
      <point x="714.6" y="1101.2857142857142" type="line"/>
      <point x="989.3" y="1087.8857142857141"/>
      <point x="1166.7333333333333" y="904.1028571428571"/>
      <point x="1166.7333333333333" y="548.4285714285714" type="curve" smooth="yes"/>
      <point x="1166.7333333333333" y="520.7142857142857" type="line" smooth="yes"/>
      <point x="1166.7333333333333" y="167.9114285714286"/>
      <point x="989.3" y="-16.6"/>
      <point x="714.6" y="-30.0" type="curve"/>
      <point x="714.6" y="-416.0" type="line"/>
    </contour>
    <contour>
      <point x="537.1333333333333" y="117.73333333333333" type="curve"/>
      <point x="537.1333333333333" y="953.552380952381" type="line"/>
      <point x="347.4786666666667" y="940.152380952381"/>
      <point x="266.46666666666664" y="809.8748571428571"/>
      <point x="266.46666666666664" y="580.4285714285714" type="curve" smooth="yes"/>
      <point x="266.46666666666664" y="488.7142857142857" type="line" smooth="yes"/>
      <point x="266.46666666666664" y="262.13942857142854"/>
      <point x="358.9133333333333" y="131.13333333333333"/>
    </contour>
    <contour>
      <point x="714.6" y="117.73333333333333" type="line"/>
      <point x="904.2546666666667" y="131.13333333333333"/>
      <point x="985.2666666666667" y="262.13942857142854"/>
      <point x="985.2666666666667" y="488.7142857142857" type="curve" smooth="yes"/>
      <point x="985.2666666666667" y="580.4285714285714" type="line" smooth="yes"/>
      <point x="985.2666666666667" y="809.8748571428571"/>
      <point x="892.82" y="940.152380952381"/>
      <point x="714.6" y="953.552380952381" type="curve"/>
    </contour>
  </outline>
</glyph>
<glyph name="Dje" format="2">
  <advance width="1471"/>
  <unicode hex="0402"/>
  <guideline x="568.0" y="625.0" angle="90.0" identifier="YDADns81zF"/>
  <outline>
    <contour>
      <point x="415.4666666666667" y="0.0" type="line"/>
      <point x="415.4666666666667" y="1303.3333333333333" type="line"/>
      <point x="24.0" y="1303.3333333333333" type="line"/>
      <point x="24.0" y="1456.0" type="line"/>
      <point x="987.7333333333333" y="1456.0" type="line"/>
      <point x="987.7333333333333" y="1303.3333333333333" type="line"/>
      <point x="597.8666666666667" y="1303.3333333333333" type="line"/>
      <point x="597.8666666666667" y="0.0" type="line"/>
    </contour>
    <contour>
      <point x="965.1333333333333" y="0.0" type="line"/>
      <point x="965.1333333333333" y="176.66666666666666" type="line"/>
      <point x="973.1333333333333" y="176.66666666666666" type="line" smooth="yes"/>
      <point x="1096.8600000000001" y="176.66666666666666"/>
      <point x="1155.8" y="267.4613333333333"/>
      <point x="1155.8" y="407.0" type="curve" smooth="yes"/>
      <point x="1155.8" y="423.0" type="line" smooth="yes"/>
      <point x="1155.8" y="594.52"/>
      <point x="1058.5346666666667" y="697.696"/>
      <point x="843.8666666666667" y="696.2666666666667" type="curve" smooth="yes"/>
      <point x="706.3113123689695" y="694.8373333333334"/>
      <point x="607.8839999999999" y="682.0000000000001"/>
      <point x="506.1333333333333" y="659.6666666666666" type="curve"/>
      <point x="506.1333333333333" y="813.4" type="line"/>
      <point x="645.136" y="837.1626666666666"/>
      <point x="718.3620463242679" y="850.0"/>
      <point x="845.1333333333333" y="850.0" type="curve" smooth="yes"/>
      <point x="1181.384" y="850.0"/>
      <point x="1339.2666666666667" y="693.5680000000001"/>
      <point x="1339.2666666666667" y="432.0" type="curve" smooth="yes"/>
      <point x="1339.2666666666667" y="409.0" type="line" smooth="yes"/>
      <point x="1339.2666666666667" y="175.83999999999997"/>
      <point x="1217.1026666666667" y="0.0"/>
      <point x="973.1333333333333" y="0.0" type="curve" smooth="yes"/>
    </contour>
  </outline>
</glyph>
<glyph name="Nje" format="2">
  <advance width="1646"/>
  <unicode hex="040A"/>
  <outline>
    <contour>
      <point x="170.0" y="0.0" type="line"/>
      <point x="170.0" y="1456.0" type="line"/>
      <point x="353.46666666666664" y="1456.0" type="line"/>
      <point x="353.46666666666664" y="857.2" type="line"/>
      <point x="902.1333333333333" y="857.2" type="line"/>
      <point x="902.1333333333333" y="1456.0" type="line"/>
      <point x="1085.6" y="1456.0" type="line"/>
      <point x="1085.6" y="857.2" type="line"/>
      <point x="1300.9333333333334" y="857.2" type="line" smooth="yes"/>
      <point x="1579.6533333333334" y="842.9066666666666"/>
      <point x="1730.6666666666667" y="716.8133333333334"/>
      <point x="1730.6666666666667" y="432.73333333333335" type="curve" smooth="yes"/>
      <point x="1730.6666666666667" y="145.79466666666661"/>
      <point x="1579.6533333333334" y="0.0"/>
      <point x="1300.9333333333334" y="0.0" type="curve" smooth="yes"/>
      <point x="902.1333333333333" y="0.0" type="line"/>
      <point x="902.1333333333333" y="703.4666666666667" type="line"/>
      <point x="353.46666666666664" y="703.4666666666667" type="line"/>
      <point x="353.46666666666664" y="0.0" type="line"/>
    </contour>
    <contour>
      <point x="1085.6" y="703.4666666666667" type="line"/>
      <point x="1085.6" y="152.66666666666666" type="line"/>
      <point x="1300.9333333333334" y="152.66666666666666" type="line" smooth="yes"/>
      <point x="1484.4240000000002" y="152.66666666666666"/>
      <point x="1547.2" y="270.236"/>
      <point x="1547.2" y="432.73333333333335" type="curve" smooth="yes"/>
      <point x="1547.2" y="593.8013333333333"/>
      <point x="1484.7866666666669" y="703.4666666666667"/>
      <point x="1299.8666666666668" y="703.4666666666667" type="curve" smooth="yes"/>
    </contour>
  </outline>
</glyph>
<glyph name="Hard" format="2">
  <advance width="1179"/>
  <unicode hex="042A"/>
  <outline>
    <contour>
      <point x="24.0" y="1303.3333333333333" type="line"/>
      <point x="24.0" y="1456.0" type="line"/>
      <point x="455.8" y="1456.0" type="line"/>
      <point x="455.8" y="894.5333333333333" type="line"/>
      <point x="671.1333333333333" y="894.5333333333333" type="line" smooth="yes"/>
      <point x="949.8533333333334" y="894.5333333333333"/>
      <point x="1100.8666666666668" y="747.2826666666666"/>
      <point x="1100.8666666666668" y="449.26666666666665" type="curve" smooth="yes"/>
      <point x="1100.8666666666668" y="151.2506666666667"/>
      <point x="949.8533333333334" y="0.0"/>
      <point x="671.1333333333333" y="0.0" type="curve" smooth="yes"/>
      <point x="272.3333333333333" y="0.0" type="line"/>
      <point x="272.3333333333333" y="1303.3333333333333" type="line"/>
    </contour>
    <contour>
      <point x="455.8" y="740.8" type="line"/>
      <point x="455.8" y="152.66666666666666" type="line"/>
      <point x="671.1333333333333" y="152.66666666666666" type="line" smooth="yes"/>
      <point x="854.6239999999999" y="152.66666666666666"/>
      <point x="917.4" y="277.03200000000004"/>
      <point x="917.4" y="449.26666666666665" type="curve" smooth="yes"/>
      <point x="917.4" y="622.9306666666666"/>
      <point x="854.9866666666667" y="740.8"/>
      <point x="670.0666666666666" y="740.8" type="curve" smooth="yes"/>
    </contour>
  </outline>
</glyph>
<glyph name="Soft" format="2">
  <advance width="1076"/>
  <unicode hex="042C"/>
  <outline>
    <contour>
      <point x="170.0" y="1456.0" type="line"/>
      <point x="170.0" y="0.0" type="line"/>
      <point x="568.8" y="0.0" type="line" smooth="yes"/>
      <point x="847.52" y="0.0"/>
      <point x="998.5333333333333" y="150.58428828831148"/>
      <point x="998.5333333333333" y="449.26666666666665" type="curve" smooth="yes"/>
      <point x="998.5333333333333" y="747.9810909090389"/>
      <point x="847.5234809387968" y="894.5333333333333"/>
      <point x="568.8" y="894.5333333333333" type="curve" smooth="yes"/>
      <point x="353.46666666666664" y="894.5333333333333" type="line"/>
      <point x="353.46666666666664" y="1456.0" type="line"/>
    </contour>
    <contour>
      <point x="353.46666666666664" y="740.8" type="line"/>
      <point x="567.7333333333333" y="740.8" type="line" smooth="yes"/>
      <point x="752.6533333333334" y="740.8"/>
      <point x="815.0666666666666" y="623.2455198135488"/>
      <point x="815.0666666666666" y="449.26666666666665" type="curve" smooth="yes"/>
      <point x="815.0666666666666" y="276.7962336769877"/>
      <point x="752.2906666666668" y="152.66666666666666"/>
      <point x="568.8" y="152.66666666666666" type="curve" smooth="yes"/>
      <point x="353.46666666666664" y="152.66666666666666" type="line"/>
    </contour>
  </outline>
</glyph>
<glyph name="nje" format="2">
  <advance width="1496"/>
  <unicode hex="045A"/>
  <outline>
    <contour>
      <point x="148.0" y="1052.0" type="line"/>
      <point x="325.46666666666664" y="1052.0" type="line"/>
      <point x="325.46666666666664" y="659.3333333333334" type="line"/>
      <point x="687.9333333333334" y="659.3333333333334" type="line"/>
      <point x="687.9333333333334" y="1052.0" type="line"/>
      <point x="865.4" y="1052.0" type="line"/>
      <point x="865.4" y="659.3333333333334" type="line"/>
      <point x="1022.0666666666666" y="659.3333333333334" type="line" smooth="yes"/>
      <point x="1281.6693333333333" y="659.3333333333334"/>
      <point x="1425.5333333333333" y="533.7386666666666"/>
      <point x="1425.5333333333333" y="331.6666666666667" type="curve" smooth="yes"/>
      <point x="1425.5333333333333" y="129.59466666666665"/>
      <point x="1281.6693333333333" y="0.0"/>
      <point x="1022.0666666666666" y="0.0" type="curve" smooth="yes"/>
      <point x="687.9333333333334" y="0.0" type="line"/>
      <point x="687.9333333333334" y="514.3333333333334" type="line"/>
      <point x="325.46666666666664" y="514.3333333333334" type="line"/>
      <point x="325.46666666666664" y="0.0" type="line"/>
      <point x="148.0" y="0.0" type="line"/>
    </contour>
    <contour>
      <point x="1022.0666666666666" y="514.3333333333334" type="curve" smooth="yes"/>
      <point x="865.4" y="514.3333333333334" type="line"/>
      <point x="865.4" y="145.0" type="line"/>
      <point x="1022.0666666666666" y="145.0" type="line" smooth="yes"/>
      <point x="1189.5666666666666" y="145.0"/>
      <point x="1248.0666666666666" y="223.25484057971053"/>
      <point x="1248.0666666666666" y="331.6666666666667" type="curve" smooth="yes"/>
      <point x="1248.0666666666666" y="438.73564444444145"/>
      <point x="1189.5666666666666" y="514.3333333333334"/>
    </contour>
  </outline>
</glyph>
<glyph name="endescender" format="2">
  <advance width="1019"/>
  <unicode hex="04A3"/>
  <outline>
    <contour>
      <point x="148.0" y="1052.0" type="line"/>
      <point x="325.46666666666664" y="1052.0" type="line"/>
      <point x="325.46666666666664" y="610.0" type="line"/>
      <point x="687.7333333333333" y="610.0" type="line"/>
      <point x="687.7333333333333" y="1052.0" type="line"/>
      <point x="865.2" y="1052.0" type="line"/>
      <point x="865.2" y="145.0" type="line"/>
      <point x="993.5333333333333" y="145.0" type="line"/>
      <point x="993.5333333333333" y="-270.0" type="line"/>
      <point x="825.5333333333333" y="-270.0" type="line"/>
      <point x="825.5333333333333" y="0.0" type="line"/>
      <point x="687.7333333333333" y="0.0" type="line"/>
      <point x="687.7333333333333" y="465.0" type="line"/>
      <point x="325.46666666666664" y="465.0" type="line"/>
      <point x="325.46666666666664" y="0.0" type="line"/>
      <point x="148.0" y="0.0" type="line"/>
    </contour>
  </outline>
</glyph>
<glyph name="Tedescender-cy" format="2">
  <advance width="1012"/>
  <unicode hex="04AC"/>
  <outline>
    <contour>
      <point x="24.0" y="1303.3333333333333" type="line"/>
      <point x="24.0" y="1456.0" type="line"/>
      <point x="987.7333333333333" y="1456.0" type="line"/>
      <point x="987.7333333333333" y="1303.3333333333333" type="line"/>
      <point x="596.5333333333333" y="1303.3333333333333" type="line"/>
      <point x="596.5333333333333" y="153.73333333333332" type="line"/>
      <point x="755.2" y="153.73333333333332" type="line"/>
      <point x="755.2" y="-290.0" type="line"/>
      <point x="583.2" y="-290.0" type="line"/>
      <point x="583.2" y="0.0" type="line"/>
      <point x="414.1333333333333" y="0.0" type="line"/>
      <point x="414.1333333333333" y="1303.3333333333333" type="line"/>
    </contour>
  </outline>
</glyph>
<glyph name="Hadescender" format="2">
  <advance width="1006"/>
  <unicode hex="04B2"/>
  <outline>
    <contour>
      <point x="807.1333333333333" y="153.73333333333332" type="line"/>
      <point x="1044.7333333333333" y="153.73333333333332" type="line"/>
      <point x="1044.7333333333333" y="-290.0" type="line"/>
      <point x="872.7333333333333" y="-290.0" type="line"/>
      <point x="872.7333333333333" y="0.0" type="line"/>
      <point x="807.1333333333333" y="0.0" type="line"/>
    </contour>
    <contour>
      <point x="25.0" y="0.0" type="line"/>
      <point x="451.93333333333334" y="803.8666666666667" type="line"/>
      <point x="463.8" y="803.8666666666667" type="line"/>
      <point x="790.4" y="1456.0" type="line"/>
      <point x="981.0666666666666" y="1456.0" type="line"/>
      <point x="573.8" y="672.1333333333333" type="line"/>
      <point x="564.0666666666666" y="672.1333333333333" type="line"/>
      <point x="215.66666666666666" y="0.0" type="line"/>
    </contour>
    <contour>
      <point x="45.733333333333334" y="1456.0" type="line"/>
      <point x="239.33333333333334" y="1456.0" type="line"/>
      <point x="567.0" y="803.8666666666667" type="line"/>
      <point x="574.8666666666667" y="803.8666666666667" type="line"/>
      <point x="1001.8" y="0.0" type="line"/>
      <point x="807.1333333333333" y="0.0" type="line"/>
      <point x="459.8" y="672.1333333333333" type="line"/>
      <point x="451.93333333333334" y="672.1333333333333" type="line"/>
    </contour>
  </outline>
</glyph>
<glyph name="hadescender" format="2">
  <advance width="824"/>
  <unicode hex="04B3"/>
  <outline>
    <contour>
      <point x="20.0" y="0.0" type="line"/>
      <point x="351.73333333333335" y="579.8666666666667" type="line"/>
      <point x="361.6666666666667" y="579.8666666666667" type="line"/>
      <point x="612.8" y="1052.0" type="line"/>
      <point x="800.4" y="1052.0" type="line"/>
      <point x="481.2" y="486.1333333333333" type="line"/>
      <point x="469.1333333333333" y="486.1333333333333" type="line"/>
      <point x="206.53333333333333" y="0.0" type="line"/>
    </contour>
    <contour>
      <point x="37.86666666666667" y="1052.0" type="line"/>
      <point x="226.33333333333334" y="1052.0" type="line"/>
      <point x="483.8666666666667" y="579.8666666666667" type="line"/>
      <point x="485.4666666666667" y="579.8666666666667" type="line"/>
      <point x="769.8666666666667" y="82.46666666666667" type="line"/>
      <point x="769.8666666666667" y="0.0" type="line"/>
      <point x="628.7333333333333" y="0.0" type="line"/>
      <point x="360.8" y="486.1333333333333" type="line"/>
      <point x="358.1333333333333" y="486.1333333333333" type="line"/>
    </contour>
    <contour>
      <point x="628.7333333333333" y="145.0" type="line"/>
      <point x="837.9333333333334" y="145.0" type="line"/>
      <point x="837.9333333333334" y="-270.0" type="line"/>
      <point x="669.9333333333334" y="-270.0" type="line"/>
      <point x="669.9333333333334" y="0.0" type="line"/>
      <point x="628.7333333333333" y="0.0" type="line"/>
    </contour>
  </outline>
</glyph>
<glyph name="hastroke-cy" format="2">
  <advance width="837"/>
  <unicode hex="04FF"/>
  <outline>
    <contour>
      <point x="124.0" y="465.0" type="line"/>
      <point x="124.0" y="610.0" type="line"/>
      <point x="713.2" y="610.0" type="line"/>
      <point x="713.2" y="465.0" type="line"/>
    </contour>
    <contour>
      <point x="20.0" y="0.0" type="line"/>
      <point x="351.73333333333335" y="579.8666666666667" type="line"/>
      <point x="371.6666666666667" y="579.8666666666667" type="line"/>
      <point x="612.8" y="1052.0" type="line"/>
      <point x="800.4" y="1052.0" type="line"/>
      <point x="481.2" y="486.1333333333333" type="line"/>
      <point x="459.1333333333333" y="486.1333333333333" type="line"/>
      <point x="206.53333333333333" y="0.0" type="line"/>
    </contour>
    <contour>
      <point x="37.86666666666667" y="1052.0" type="line"/>
      <point x="226.33333333333334" y="1052.0" type="line"/>
      <point x="473.8666666666667" y="579.8666666666667" type="line"/>
      <point x="485.4666666666667" y="579.8666666666667" type="line"/>
      <point x="817.2" y="0.0" type="line"/>
      <point x="628.7333333333333" y="0.0" type="line"/>
      <point x="370.8" y="486.1333333333333" type="line"/>
      <point x="358.1333333333333" y="486.1333333333333" type="line"/>
    </contour>
  </outline>
</glyph>
<glyph name="quoteright" format="2">
  <advance width="410"/>
  <unicode hex="2019"/>
  <outline>
    <contour>
      <point x="318.0" y="1458.0" type="line"/>
      <point x="318.0" y="1330.0" type="line" smooth="yes"/>
      <point x="318.0" y="1209.4"/>
      <point x="254.88" y="1059.12"/>
      <point x="145.0" y="968.0" type="curve"/>
      <point x="39.0" y="1041.0" type="line"/>
      <point x="101.98" y="1129.44"/>
      <point x="134.0" y="1218.46"/>
      <point x="134.0" y="1327.0" type="curve" smooth="yes"/>
      <point x="134.0" y="1458.0" type="line"/>
    </contour>
  </outline>
</glyph>
<glyph name="quotesinglbase" format="2">
  <advance width="410"/>
  <unicode hex="201A"/>
  <outline>
    <contour>
      <point x="318.0" y="220.0" type="line"/>
      <point x="318.0" y="92.0" type="line" smooth="yes"/>
      <point x="318.0" y="-28.60000000000001"/>
      <point x="254.88" y="-178.88"/>
      <point x="145.0" y="-270.0" type="curve"/>
      <point x="39.0" y="-197.0" type="line"/>
      <point x="101.98" y="-108.55999999999999"/>
      <point x="134.0" y="-19.540000000000006"/>
      <point x="134.0" y="89.0" type="curve" smooth="yes"/>
      <point x="134.0" y="220.0" type="line"/>
    </contour>
  </outline>
</glyph>
<glyph name="dagger" format="2">
  <advance width="1008"/>
  <unicode hex="2020"/>
  <outline>
    <contour>
      <point x="411.3333333333333" y="-274.0" type="curve"/>
      <point x="407.3333333333333" y="8.0" type="line"/>
      <point x="428.3333333333333" y="748.0" type="line"/>
      <point x="428.3333333333333" y="852.0" type="line"/>
      <point x="125.33333333333334" y="852.0" type="line"/>
      <point x="125.33333333333334" y="1025.0" type="line"/>
      <point x="424.3333333333333" y="1025.0" type="line"/>
      <point x="411.3333333333333" y="1508.0" type="line"/>
      <point x="591.6666666666666" y="1508.0" type="line"/>
      <point x="578.6666666666666" y="1025.0" type="line"/>
      <point x="877.6666666666666" y="1025.0" type="line"/>
      <point x="877.6666666666666" y="852.0" type="line"/>
      <point x="574.6666666666666" y="852.0" type="line"/>
      <point x="574.6666666666666" y="748.0" type="line"/>
      <point x="595.6666666666666" y="8.0" type="line"/>
      <point x="591.6666666666666" y="-274.0" type="line"/>
      <point x="493.84666666666664" y="-462.94"/>
      <point x="510.49333333333334" y="-464.28"/>
    </contour>
  </outline>
</glyph>
<glyph name="daggerdbl" format="2">
  <advance width="1008"/>
  <unicode hex="2021"/>
  <outline>
    <contour>
      <point x="130.33333333333334" y="38.0" type="line"/>
      <point x="130.33333333333334" y="204.0" type="line"/>
      <point x="433.3333333333333" y="204.0" type="line"/>
      <point x="413.3333333333333" y="534.0" type="line"/>
      <point x="428.3333333333333" y="855.0" type="line"/>
      <point x="130.33333333333334" y="855.0" type="line"/>
      <point x="130.33333333333334" y="1022.0" type="line"/>
      <point x="414.3333333333333" y="1022.0" type="line"/>
      <point x="411.3333333333333" y="1508.0" type="line"/>
      <point x="591.6666666666666" y="1508.0" type="line"/>
      <point x="588.6666666666666" y="1022.0" type="line"/>
      <point x="872.6666666666666" y="1022.0" type="line"/>
      <point x="872.6666666666666" y="855.0" type="line"/>
      <point x="574.6666666666666" y="855.0" type="line"/>
      <point x="589.6666666666666" y="534.0" type="line"/>
      <point x="569.6666666666666" y="204.0" type="line"/>
      <point x="872.6666666666666" y="204.0" type="line"/>
      <point x="872.6666666666666" y="38.0" type="line"/>
      <point x="583.6666666666666" y="38.0" type="line"/>
      <point x="586.6666666666666" y="-452.0" type="line"/>
      <point x="416.3333333333333" y="-452.0" type="line"/>
      <point x="419.3333333333333" y="38.0" type="line"/>
    </contour>
  </outline>
</glyph>
<glyph name="second" format="2">
  <advance width="938"/>
  <unicode hex="2033"/>
  <outline>
    <contour>
      <point x="87.2" y="937.3333333333334" type="line"/>
      <point x="261.66666666666663" y="1579.2666666666667" type="line"/>
      <point x="471.73333333333335" y="1510.6666666666667" type="line" smooth="yes"/>
      <point x="231.0" y="884.0" type="line"/>
    </contour>
    <contour>
      <point x="487.1333333333333" y="937.3333333333334" type="line"/>
      <point x="661.6" y="1579.2666666666667" type="line"/>
      <point x="871.6666666666666" y="1510.6666666666667" type="line" smooth="yes"/>
      <point x="630.9333333333333" y="884.0" type="line"/>
    </contour>
  </outline>
</glyph>
<glyph name="fraction" format="2">
  <advance width="342"/>
  <unicode hex="2044"/>
  <guideline x="0" y="901.0" angle="0" identifier="tcCoNUQTdD"/>
  <guideline x="0" y="555.0" angle="0" identifier="0lx51aIE0d"/>
  <outline>
    <contour>
      <point x="645.5333333333333" y="1415.9333333333334" type="line"/>
      <point x="-161.33333333333334" y="-43.0" type="line"/>
      <point x="-290.6" y="40.8" type="line"/>
      <point x="512.0" y="1493.3333333333333" type="line"/>
    </contour>
  </outline>
</glyph>
<glyph name="lira" format="2">
  <advance width="927"/>
  <unicode hex="20A4"/>
  <outline>
    <contour>
      <point x="921.3333333333334" y="0.0" type="line"/>
      <point x="36.0" y="0.0" type="line"/>
      <point x="36.0" y="160.0" type="line"/>
      <point x="92.0" y="160.0" type="line" smooth="yes"/>
      <point x="215.28" y="160.0"/>
      <point x="268.56" y="275.38"/>
      <point x="249.8" y="467.0" type="curve" smooth="yes"/>
      <point x="194.8" y="1039.0" type="line" smooth="yes"/>
      <point x="167.8213333333333" y="1323.7053333333333"/>
      <point x="285.48400000000004" y="1476.0"/>
      <point x="527.6666666666666" y="1476.0" type="curve" smooth="yes"/>
      <point x="753.6800000000001" y="1476.0"/>
      <point x="877.3333333333334" y="1345.3613333333333"/>
      <point x="877.3333333333334" y="1103.0" type="curve" smooth="yes"/>
      <point x="877.3333333333334" y="1087.0" type="line"/>
      <point x="685.3333333333334" y="1087.0" type="line"/>
      <point x="685.3333333333334" y="1103.0" type="line" smooth="yes"/>
      <point x="685.9586666666665" y="1234.2306666666668"/>
      <point x="631.5066666666667" y="1308.3333333333333"/>
      <point x="529.6666666666666" y="1308.3333333333333" type="curve" smooth="yes"/>
      <point x="417.28533333333337" y="1308.3333333333333"/>
      <point x="367.12" y="1213.8253333333334"/>
      <point x="383.2" y="1039.0" type="curve" smooth="yes"/>
      <point x="434.2" y="508.0" type="line" smooth="yes"/>
      <point x="451.62" y="325.76"/>
      <point x="415.8" y="220.94"/>
      <point x="322.0" y="166.0" type="curve"/>
      <point x="921.3333333333334" y="166.0" type="line"/>
    </contour>
    <contour>
      <point x="718.6666666666666" y="791.2666666666667" type="line"/>
      <point x="52.666666666666664" y="791.2666666666667" type="line"/>
      <point x="52.666666666666664" y="927.7333333333333" type="line"/>
      <point x="718.6666666666666" y="927.7333333333333" type="line"/>
    </contour>
    <contour>
      <point x="718.6666666666666" y="417.26666666666665" type="line"/>
      <point x="52.666666666666664" y="417.26666666666665" type="line"/>
      <point x="52.666666666666664" y="553.7333333333333" type="line"/>
      <point x="718.6666666666666" y="553.7333333333333" type="line"/>
    </contour>
  </outline>
</glyph>
<glyph name="manat" format="2">
  <advance width="1130"/>
  <unicode hex="20BC"/>
  <outline>
    <contour>
      <point x="1019.3333333333334" y="916.0" type="curve" smooth="yes"/>
      <point x="1019.3333333333334" y="0.0" type="line"/>
      <point x="837.3333333333334" y="0.0" type="line"/>
      <point x="837.3333333333334" y="916.0" type="line" smooth="yes"/>
      <point x="837.5120000000001" y="1143.8"/>
      <point x="729.9266666666666" y="1256.2666666666667"/>
      <point x="543.6666666666666" y="1256.2666666666667" type="curve" smooth="yes"/>
      <point x="357.4066666666667" y="1256.2666666666667"/>
      <point x="250.0" y="1143.8"/>
      <point x="250.0" y="916.0" type="curve" smooth="yes"/>
      <point x="250.0" y="0.0" type="line"/>
      <point x="68.0" y="0.0" type="line"/>
      <point x="68.0" y="916.0" type="line" smooth="yes"/>
      <point x="72.02" y="1251.0"/>
      <point x="263.6066666666667" y="1416.0"/>
      <point x="543.6666666666666" y="1416.0" type="curve" smooth="yes"/>
      <point x="825.0666666666666" y="1416.0"/>
      <point x="1015.0453333333334" y="1251.0"/>
    </contour>
    <contour>
      <point x="623.6666666666666" y="0.0" type="line"/>
      <point x="463.6666666666667" y="0.0" type="line"/>
      <point x="463.6666666666667" y="1582.0" type="line"/>
      <point x="623.6666666666666" y="1582.0" type="line"/>
    </contour>
  </outline>
</glyph>
<glyph name="four.prop" format="2">
  <advance width="999"/>
  <outline>
    <contour>
      <point x="598.4666666666667" y="0.0" type="line"/>
      <point x="598.4666666666667" y="398.0" type="line"/>
      <point x="598.4666666666667" y="447.8666666666667" type="line"/>
      <point x="598.4666666666667" y="1083.9333333333334" type="line"/>
      <point x="586.4666666666667" y="1083.9333333333334" type="line"/>
      <point x="235.86666666666667" y="495.73333333333335" type="line"/>
      <point x="664.4" y="495.73333333333335" type="line"/>
      <point x="727.5333333333333" y="495.73333333333335" type="line"/>
      <point x="947.2666666666667" y="495.73333333333335" type="line"/>
      <point x="947.2666666666667" y="344.1333333333333" type="line"/>
      <point x="39.266666666666666" y="344.1333333333333" type="line"/>
      <point x="39.266666666666666" y="465.8666666666667" type="line"/>
      <point x="628.8666666666667" y="1456.0" type="line"/>
      <point x="769.9333333333334" y="1456.0" type="line"/>
      <point x="769.9333333333334" y="0.0" type="line"/>
    </contour>
  </outline>
</glyph>
<glyph name="seven.prop" format="2">
  <advance width="977"/>
  <outline>
    <contour>
      <point x="246.06666666666666" y="0.0" type="line"/>
      <point x="689.0" y="1304.2666666666667" type="line"/>
      <point x="89.8" y="1304.2666666666667" type="line"/>
      <point x="89.8" y="1456.0" type="line"/>
      <point x="876.3333333333334" y="1456.0" type="line"/>
      <point x="876.3333333333334" y="1354.1333333333334" type="line"/>
      <point x="433.5333333333333" y="0.0" type="line"/>
    </contour>
  </outline>
</glyph>
<glyph name="zerosuperior" format="2">
  <advance width="691"/>
  <outline>
    <contour>
      <point x="67.0" y="993.3333333333334" type="curve" smooth="yes"/>
      <point x="67.0" y="1182.6666666666667" type="line" smooth="yes"/>
      <point x="67.0" y="1377.056"/>
      <point x="171.688" y="1496.0"/>
      <point x="346.06666666666666" y="1496.0" type="curve" smooth="yes"/>
      <point x="520.4453333333333" y="1496.0"/>
      <point x="624.0" y="1377.056"/>
      <point x="624.0" y="1182.6666666666667" type="curve" smooth="yes"/>
      <point x="624.0" y="993.3333333333334" type="line" smooth="yes"/>
      <point x="624.0" y="798.944"/>
      <point x="520.4453333333333" y="680.0"/>
      <point x="346.06666666666666" y="680.0" type="curve" smooth="yes"/>
      <point x="171.688" y="680.0"/>
      <point x="67.0" y="798.944"/>
    </contour>
    <contour>
      <point x="229.93333333333334" y="988.0" type="line" smooth="yes"/>
      <point x="229.93333333333334" y="888.84"/>
      <point x="262.62933333333336" y="825.7333333333333"/>
      <point x="346.06666666666666" y="825.7333333333333" type="curve" smooth="yes"/>
      <point x="429.50399999999996" y="825.7333333333333"/>
      <point x="461.06666666666666" y="888.84"/>
      <point x="461.06666666666666" y="988.0" type="curve" smooth="yes"/>
      <point x="461.06666666666666" y="1188.0" type="line" smooth="yes"/>
      <point x="461.06666666666666" y="1287.16"/>
      <point x="429.50399999999996" y="1350.2666666666667"/>
      <point x="346.06666666666666" y="1350.2666666666667" type="curve" smooth="yes"/>
      <point x="262.62933333333336" y="1350.2666666666667"/>
      <point x="229.93333333333334" y="1287.16"/>
      <point x="229.93333333333334" y="1188.0" type="curve" smooth="yes"/>
    </contour>
  </outline>
</glyph>
<glyph name="zhe.bgr" format="2">
  <advance width="1262"/>
  <outline>
    <contour>
      <point x="1076.2666666666667" y="0.0" type="line"/>
      <point x="775.8666666666667" y="597.3333333333334" type="line"/>
      <point x="889.7333333333333" y="734.9333333333333" type="line"/>
      <point x="1278.2666666666667" y="0.0" type="line"/>
    </contour>
    <contour>
      <point x="183.06666666666666" y="0.0" type="line"/>
      <point x="-16.0" y="0.0" type="line"/>
      <point x="372.5333333333333" y="734.9333333333333" type="line"/>
      <point x="483.4666666666667" y="597.3333333333334" type="line"/>
    </contour>
    <contour>
      <point x="540.9333333333334" y="0.0" type="line"/>
      <point x="540.9333333333334" y="381.93333333333334" type="line"/>
      <point x="20.46666666666667" y="1052.0" type="line"/>
      <point x="221.86666666666667" y="1052.0" type="line"/>
      <point x="540.9333333333334" y="614.8666666666667" type="line"/>
      <point x="540.9333333333334" y="1536.0" type="line"/>
      <point x="718.4" y="1536.0" type="line"/>
      <point x="718.4" y="614.8666666666667" type="line"/>
      <point x="1037.4666666666667" y="1052.0" type="line"/>
      <point x="1238.8666666666668" y="1052.0" type="line"/>
      <point x="718.4" y="381.93333333333334" type="line"/>
      <point x="718.4" y="0.0" type="line"/>
    </contour>
  </outline>
</glyph>
